<?xml version="1.0" standalone="no"?>
<!DOCTYPE svg PUBLIC "-//W3C//DTD SVG 20010904//EN"
 "http://www.w3.org/TR/2001/REC-SVG-20010904/DTD/svg10.dtd">
<svg version="1.0" xmlns="http://www.w3.org/2000/svg"
 width="524.000000pt" height="524.000000pt" viewBox="0 0 524.000000 524.000000"
 preserveAspectRatio="xMidYMid meet">
<metadata>
Created by potrace 1.14, written by Peter Selinger 2001-2017
</metadata>
<g transform="translate(0.000000,524.000000) scale(0.100000,-0.100000)"
fill="#000000" stroke="none">
<path d="M595 5225 c-299 -66 -524 -295 -583 -595 -4 -19 -7 -933 -7 -2030 l0
-1995 27 -80 c49 -142 141 -273 263 -374 45 -38 165 -97 246 -123 l74 -23
2005 0 c1901 0 2008 1 2065 18 263 79 454 270 532 532 17 57 18 172 21 2038 2
2144 5 2038 -51 2177 -83 204 -255 364 -472 438 l-80 27 -1990 2 c-1622 1
-2001 -1 -2050 -12z"/>
</g>
</svg>
